PathFileType	4	(X/Y/Z)	D:\Research_projects\MuscleProsody\BulkSports2Dtrack\RetrackedSports2D\p1_sample60_cam1\p1_sample60_cam1_Sports2D\p1_sample60_cam1_Sports2D_px_person00.trc
DataRate	CameraRate	NumFrames	NumMarkers	Units	OrigDataRate	OrigDataStartFrame	OrigNumFrames
60	60	8	22	m	60	0	780
Frame#	Time	Hip			RHip			RKnee			RAnkle			RBigToe			RSmallToe			RHeel			LHip			LKnee			LAnkle			LBigToe			LSmallToe			LHeel			Neck			Head			Nose			RShoulder			RElbow			RWrist			LShoulder			LElbow			LWrist		
		X1	Y1	Z1	X2	Y2	Z2	X3	Y3	Z3	X4	Y4	Z4	X5	Y5	Z5	X6	Y6	Z6	X7	Y7	Z7	X8	Y8	Z8	X9	Y9	Z9	X10	Y10	Z10	X11	Y11	Z11	X12	Y12	Z12	X13	Y13	Z13	X14	Y14	Z14	X15	Y15	Z15	X16	Y16	Z16	X17	Y17	Z17	X18	Y18	Z18	X19	Y19	Z19	X20	Y20	Z20	X21	Y21	Z21	X22	Y22	Z22
0	0.0	320.8755884425414	555.7926378961662	0.0	289.33001249569355	569.6069449398719	0.0	279.4948782192573	691.8937221520127	0.0	271.65358707737073	800.3556579071218	0.0	311.0849678149337	843.7627990692138	0.0	289.4099508270178	845.7550084726654	0.0	261.7225388752346	812.1853221497644	0.0	344.5910184534999	569.5840665205785	0.0	328.81930662662694	683.9982921406986	0.0	307.0499321168197	780.7039103375738	0.0	338.6418131562416	826.057608478348	0.0	346.52641107945095	816.1532655599433	0.0	299.2089694031272	796.4595209922784	0.0	326.81575154446836	328.9785762398861	0.0	352.39815334779314	232.33905068706423	0.0	370.19356026232447	281.6215288384642	0.0	265.67458697808166	360.5389542437959	0.0	245.9431875257941	474.9520817864402	0.0	259.7757699151283	565.6325040399435	0.0	366.2907975668126	366.4603873400057	0.0	370.2164588546885	463.1157896828366	0.0	384.00144618554754	545.9155928629285	0.0
1	0.016666666666666666	320.8170132885571	556.0018411801216	0.0	289.0455444751066	569.2969495206127	0.0	279.3138056931725	691.9671899921805	0.0	271.7875543253411	800.3601028665513	0.0	311.9779351231218	844.2138597520544	0.0	290.13622547433454	846.2277050346487	0.0	261.52908340743306	812.4757366692085	0.0	344.5717881850652	569.3699621502484	0.0	328.56079089858997	684.4893370070348	0.0	306.9694647981056	780.8124887804117	0.0	338.20346516547215	825.4299790733479	0.0	345.8718127513182	815.4535775612042	0.0	299.56042237058256	796.4295050259514	0.0	327.211569082637	329.0389504644455	0.0	352.41388939019623	232.11889254474517	0.0	369.38833309205353	281.6265140176696	0.0	265.98681762837913	360.6450280526297	0.0	246.01885713325078	474.22160888712705	0.0	259.5797283425347	565.7489055940144	0.0	366.4707513238736	366.4030294393322	0.0	370.42099397905827	463.1901250667172	0.0	384.9210670023512	545.2394122839199	0.0
2	0.03333333333333333	320.7712442336466	556.195469369702	0.0	288.7874163926375	569.000193141437	0.0	279.1503397979781	692.0408964156783	0.0	271.9087058085531	800.374264913151	0.0	312.8009689645185	844.6400978921349	0.0	290.80278429486964	846.6619396600271	0.0	261.34757211985476	812.7650888872859	0.0	344.552264998476	569.1687561634428	0.0	328.3203190697573	684.9506676740208	0.0	306.8998561294171	780.910310843396	0.0	337.80783760411305	824.8522493274886	0.0	345.26047034274853	814.8069383557809	0.0	299.8963145983336	796.3921586441862	0.0	327.59052785170786	329.0879310417866	0.0	352.44327214094415	231.9097065504239	0.0	368.6379920181818	281.6405063734509	0.0	266.2903810350507	360.73632169963156	0.0	246.08641066848307	473.54547191171935	0.0	259.4077297615225	565.8589655804153	0.0	366.63161311252617	366.33863275463113	0.0	370.6205332766153	463.24940851376704	0.0	385.78460912766	544.5916785792416	0.0
3	0.05	320.7440457984585	556.3605987961214	0.0	288.57338551553755	568.7275603952098	0.0	279.01706777458696	692.1132292460613	0.0	272.0117929140397	800.4072400846429	0.0	313.5157584264053	845.0229290837322	0.0	291.3760020508373	847.0326915462554	0.0	261.18338786474766	813.0541759570922	0.0	344.5341792799518	568.9860066906822	0.0	328.1089180852116	685.3635479255582	0.0	306.8370547464077	780.9974974277995	0.0	337.4773924468682	824.3564748542889	0.0	344.71622586068884	814.2455051638498	0.0	300.2049487146021	796.3525796337576	0.0	327.93783532432155	329.1184569373238	0.0	352.48284222503986	231.7195924984788	0.0	367.98031223605904	281.6668258073204	0.0	266.57979413365234	360.80405646655424	0.0	246.1413797396641	472.96419480454045	0.0	259.2790174423928	565.9602597549	0.0	366.7629541689871	366.2660095395626	0.0	370.8065684500409	463.2899630749043	0.0	386.5483687606837	543.9941700391265	0.0
4	0.06666666666666667	320.7344677104346	556.4903476745283	0.0	288.409571458565	568.4833463879627	0.0	278.91693423887494	692.184027233122	0.0	272.0896746028757	800.4639237864494	0.0	314.1127134711685	845.351731989205	0.0	291.84660221800635	847.3287608262093	0.0	261.0345180825708	813.3456136335693	0.0	344.5179997852089	568.8237618203683	0.0	327.9262140266744	685.7227846092626	0.0	306.7769052455302	781.0770392685039	0.0	337.2178798942803	823.9497507503949	0.0	344.24602547496016	813.7753991592286	0.0	300.48445705251515	796.3196931145823	0.0	328.2442869930368	329.12689267355967	0.0	352.526852776109	231.54831470614045	0.0	367.4335944759597	281.7049227382444	0.0	266.85303873154766	360.84514486347854	0.0	246.18415812229412	472.4943003476575	0.0	259.20337738073226	566.0599489084826	0.0	366.857941004016	366.1902416473392	0.0	370.9672775687672	463.316858530905	0.0	387.18887120469236	543.4616705484002	0.0
5	0.08333333333333333	320.7373688494425	556.5850629579352	0.0	288.2945718478807	568.2677896332787	0.0	278.84615926436646	692.2529322703786	0.0	272.13727177026624	800.5447721957026	0.0	314.5974602783911	845.6232843137224	0.0	292.21903461444776	847.5500451781396	0.0	260.8989322990906	813.6391718112623	0.0	344.50279873521237	568.6845728979908	0.0	327.7674783175503	686.0290163457927	0.0	306.7222096339255	781.1495454804129	0.0	337.0304843448497	823.626197974445	0.0	343.8508695554949	813.3901396219675	0.0	300.7397899842116	796.2993554955586	0.0	328.50059862267483	329.1130560898614	0.0	352.56925505484674	231.39132982228034	0.0	366.9990436028557	281.7555644724024	0.0	267.1073486805986	360.8607828359856	0.0	246.22204888767732	472.131972233386	0.0	259.18187623776	566.1650070344476	0.0	366.9139363108096	366.1217036471814	0.0	371.0924737606785	463.33998920827196	0.0	387.7017225613732	543.0042549914147	0.0
6	0.1	320.74927672226073	556.6494472342571	0.0	288.22331380163206	568.0820149907798	0.0	278.7971152324801	692.3184064722662	0.0	272.1548158839317	800.6488236639813	0.0	314.9783565008591	845.840091690339	0.0	292.5018793440431	847.7027055406029	0.0	260.7785807750879	813.9304800479589	0.0	344.48707170881585	568.573227499884	0.0	327.62913845996286	686.2821744266813	0.0	306.6826506358438	781.2081718799643	0.0	336.9184193066996	823.3791281169848	0.0	343.5323638498667	813.0831070705741	0.0	300.9741205540778	796.2897637344099	0.0	328.6955779395152	329.0799650003482	0.0	352.6053889853643	231.24619586992995	0.0	366.66657708566737	281.8209894620783	0.0	267.33546828525004	360.85459540129233	0.0	246.2659161238415	471.8614851676322	0.0	259.208698372148	566.275172112868	0.0	366.93303883934567	366.0708209644666	0.0	371.17837996622814	463.36888893776984	0.0	388.0950613604873	542.6294597291028	0.0
7	0.11666666666666667	320.77035536514484	556.6899387967726	0.0	288.1894287738068	567.9291171311241	0.0	278.7607325541194	692.3771787094635	0.0	272.14575462494963	800.772546745778	0.0	315.26396932794347	846.0086871073844	0.0	292.70512382398533	847.796678351011	0.0	260.6748873030193	814.2095454777887	0.0	344.4697534958259	568.4934857383207	0.0	327.50964070774864	686.481253042015	0.0	306.6672698891588	781.2421354337158	0.0	336.88285202196255	823.2004368620512	0.0	343.29281363947064	812.8468405693337	0.0	301.18457946332734	796.2851378033491	0.0	328.8211996422685	329.0337579790283	0.0	352.63324458783654	231.11507573890748	0.0	366.4201909140312	281.8993311963369	0.0	267.5277820031768	360.8331248265995	0.0	246.32468892130092	471.66375483681185	0.0	259.27286674612776	566.3857868532144	0.0	366.92125346154546	366.0431852003605	0.0	371.22830878510587	463.40937274327933	0.0	388.38190055948576	542.3398803137227	0.0
